# xmcd
#
# Track frame offsets: 
#        150
#        15410
#        31442
#        46852
#        85172
#        101775
#        115530
#        132990
#        151295
#        175017
#        192205
#        215717
#        235547
#
# Disc length: 3373 seconds
#
# Revision: 0
# Processed by: cddbd v1.4PL0 Copyright (c) Steve Scherf et al.
# Submitted via: ExactAudioCopy v0.90b3
#
DISCID=9c0d2b0d
DTITLE=Black Cat Bones - Movin' And Groovin'
DYEAR=1996
DGENRE=Blues
TTITLE0=Old Fashioned Shuffle
TTITLE1=Robbin The Duke
TTITLE2=Freakin' Out
TTITLE3=When Life Is Getting Too Tough
TTITLE4=Shot Of Rhythm And Blues
TTITLE5=Movin' And Groovin'
TTITLE6=Real Man
TTITLE7=Buzz Me
TTITLE8=Lost In The Dark
TTITLE9=The Blues Had A Baby, And They Named It Rock'n'roll
TTITLE10=Broken Dreams
TTITLE11=Voodoo Woman
TTITLE12=Me And The Boys
EXTD=
EXTT0=
EXTT1=
EXTT2=
EXTT3=
EXTT4=
EXTT5=
EXTT6=
EXTT7=
EXTT8=
EXTT9=
EXTT10=
EXTT11=
EXTT12=
PLAYORDER=
